<svg width="22" height="22" viewBox="0 0 22 22" fill="none" xmlns="http://www.w3.org/2000/svg">
<path d="M11 3.4375C9.50428 3.4375 8.04215 3.88103 6.7985 4.71201C5.55486 5.54299 4.58555 6.72409 4.01316 8.10596C3.44078 9.48782 3.29101 11.0084 3.58281 12.4754C3.87462 13.9424 4.59487 15.2899 5.65251 16.3475C6.71014 17.4051 8.05765 18.1254 9.52463 18.4172C10.9916 18.709 12.5122 18.5592 13.894 17.9868C15.2759 17.4145 16.457 16.4451 17.288 15.2015C18.119 13.9579 18.5625 12.4957 18.5625 11C18.5625 8.9943 17.7657 7.07075 16.3475 5.65251C14.9293 4.23426 13.0057 3.4375 11 3.4375Z" stroke="#121A26" stroke-width="1.5" stroke-miterlimit="10"/>
<path d="M11.5508 14C10.7643 13.0646 11.0509 12.0492 11.0509 11" stroke="#121A26" stroke-width="1.3125" stroke-miterlimit="10" stroke-linecap="round"/>
<path d="M11.1406 8C10.666 8 10.2813 8.38476 10.2813 8.85937C10.2813 9.33399 10.666 9.71875 11.1406 9.71875C11.6152 9.71875 12 9.33399 12 8.85938C12 8.38476 11.6152 8 11.1406 8Z" fill="#121A26"/>
</svg>
