<svg width="21" height="20" viewBox="0 0 21 20" fill="none" xmlns="http://www.w3.org/2000/svg">
<path d="M17.6523 9.75725C17.655 10.8101 17.4091 11.8487 16.9344 12.7885C16.3716 13.9146 15.5063 14.8618 14.4356 15.524C13.3649 16.1861 12.1309 16.5371 10.872 16.5376C9.81913 16.5403 8.78053 16.2943 7.84076 15.8197L3.29395 17.3353L4.80955 12.7885C4.33487 11.8487 4.08889 10.8101 4.09163 9.75725C4.09212 8.49831 4.4431 7.26436 5.10527 6.19362C5.76743 5.12289 6.71463 4.25765 7.84076 3.69483C8.78053 3.22015 9.81913 2.97417 10.872 2.97691H11.2708C12.9335 3.06864 14.5039 3.77042 15.6813 4.94788C16.8588 6.12535 17.5606 7.69575 17.6523 9.35841V9.75725Z" stroke="#4B164C" stroke-width="1.59538" stroke-linecap="round" stroke-linejoin="round"/>
</svg>
