<svg width="19" height="19" viewBox="0 0 19 19" fill="none" xmlns="http://www.w3.org/2000/svg">
<path d="M16.7981 2.35876C17.9045 3.46518 18.0249 4.44799 17.9354 5.11606C17.8882 5.46839 17.7785 5.7607 17.6799 5.96403C17.6311 6.06483 17.5858 6.14108 17.5556 6.18915C17.5503 6.19759 17.5454 6.20534 17.5411 6.21194L7.82116 15.9319C7.80584 15.9472 7.78862 15.9611 7.77006 15.9719L7.71067 15.9968L1.85563 17.6092C1.69203 17.6542 1.54032 17.5277 1.53937 17.3703L1.54765 17.3012L3.16005 11.4462C3.17156 11.4045 3.19437 11.3663 3.22496 11.3357L12.9449 1.61574C12.9515 1.61144 12.9593 1.60655 12.9677 1.60124C13.0158 1.57103 13.092 1.5258 13.1928 1.47695C13.3962 1.3784 13.6885 1.26864 14.0408 1.22145C14.7089 1.13198 15.6917 1.25233 16.7981 2.35876Z" stroke="white" stroke-width="1.5"/>
</svg>
