<svg width="22" height="22" viewBox="0 0 22 22" fill="none" xmlns="http://www.w3.org/2000/svg">
<path d="M7.33341 13.75C7.33341 12.7375 6.5126 11.9167 5.50008 11.9167C4.48756 11.9167 3.66675 12.7375 3.66675 13.75V15.5833C3.66675 16.5958 4.48756 17.4167 5.50008 17.4167C6.5126 17.4167 7.33341 16.5958 7.33341 15.5833V13.75Z" stroke="#121A26" stroke-width="1.5" stroke-linecap="round" stroke-linejoin="round"/>
<path d="M18.3334 13.75C18.3334 12.7375 17.5126 11.9167 16.5001 11.9167C15.4876 11.9167 14.6667 12.7375 14.6667 13.75V15.5833C14.6667 16.5958 15.4876 17.4167 16.5001 17.4167C17.5126 17.4167 18.3334 16.5958 18.3334 15.5833V13.75Z" stroke="#121A26" stroke-width="1.5" stroke-linecap="round" stroke-linejoin="round"/>
<path d="M3.66675 13.75V11C3.66675 9.05507 4.43937 7.18981 5.81463 5.81454C7.1899 4.43927 9.05516 3.66666 11.0001 3.66666C12.945 3.66666 14.8103 4.43927 16.1855 5.81454C17.5608 7.18981 18.3334 9.05507 18.3334 11V13.75M16.5001 17.4167C16.5001 18.146 15.9206 18.8455 14.8892 19.3612C13.8577 19.8769 12.4588 20.1667 11.0001 20.1667" stroke="#121A26" stroke-width="1.5" stroke-linecap="round" stroke-linejoin="round"/>
</svg>
