<svg width="27" height="23" viewBox="0 0 27 23" fill="none" xmlns="http://www.w3.org/2000/svg">
<g filter="url(#filter0_d_328_1089)">
<path d="M21.9945 11.0203C21.7902 10.8628 21.5559 10.7485 21.3059 10.6845C21.0559 10.6204 20.7956 10.6079 20.5406 10.6477C22.0078 9.16642 22.75 7.69376 22.75 6.25001C22.75 4.18204 21.0867 2.50001 19.0422 2.50001C18.4997 2.49661 17.963 2.61198 17.4699 2.83805C16.9767 3.06411 16.539 3.39539 16.1875 3.80861C15.836 3.39539 15.3983 3.06411 14.9051 2.83805C14.412 2.61198 13.8753 2.49661 13.3328 2.50001C11.2883 2.50001 9.625 4.18204 9.625 6.25001C9.625 7.10939 9.87812 7.94454 10.4109 8.82814C9.97456 8.93869 9.57632 9.16549 9.25859 9.48439L7.49141 11.25H5.25C4.91848 11.25 4.60054 11.3817 4.36612 11.6161C4.1317 11.8505 4 12.1685 4 12.5V15.625C4 15.9565 4.1317 16.2745 4.36612 16.5089C4.60054 16.7433 4.91848 16.875 5.25 16.875H13.375C13.4261 16.875 13.477 16.8687 13.5266 16.8563L18.5266 15.6063C18.5584 15.5987 18.5896 15.5882 18.6195 15.575L21.6562 14.2828L21.6906 14.2672C21.9825 14.1214 22.2324 13.9036 22.4168 13.6345C22.6013 13.3654 22.7142 13.0537 22.7449 12.7289C22.7756 12.4041 22.7231 12.0768 22.5924 11.7779C22.4617 11.479 22.257 11.2183 21.9977 11.0203H21.9945ZM21.143 13.1414L18.1742 14.4055L13.2969 15.625H8.375V12.1336L10.143 10.3664C10.2586 10.2498 10.3963 10.1574 10.548 10.0945C10.6997 10.0316 10.8623 9.99949 11.0266 10H14.9375C15.1861 10 15.4246 10.0988 15.6004 10.2746C15.7762 10.4504 15.875 10.6889 15.875 10.9375C15.875 11.1862 15.7762 11.4246 15.6004 11.6004C15.4246 11.7762 15.1861 11.875 14.9375 11.875H12.75C12.5842 11.875 12.4253 11.9409 12.3081 12.0581C12.1908 12.1753 12.125 12.3343 12.125 12.5C12.125 12.6658 12.1908 12.8247 12.3081 12.942C12.4253 13.0592 12.5842 13.125 12.75 13.125H15.25C15.297 13.1249 15.3439 13.1196 15.3898 13.1094L20.6242 11.9055L20.6484 11.8992C20.8082 11.8549 20.9788 11.8712 21.1273 11.945C21.2758 12.0188 21.3917 12.145 21.4528 12.2991C21.5139 12.4533 21.5158 12.6246 21.4582 12.7801C21.4005 12.9356 21.2874 13.0643 21.1406 13.1414H21.143Z" fill="white"/>
</g>
<defs>
<filter id="filter0_d_328_1089" x="0" y="0.499939" width="26.7534" height="22.3751" filterUnits="userSpaceOnUse" color-interpolation-filters="sRGB">
<feFlood flood-opacity="0" result="BackgroundImageFix"/>
<feColorMatrix in="SourceAlpha" type="matrix" values="0 0 0 0 0 0 0 0 0 0 0 0 0 0 0 0 0 0 127 0" result="hardAlpha"/>
<feOffset dy="2"/>
<feGaussianBlur stdDeviation="2"/>
<feComposite in2="hardAlpha" operator="out"/>
<feColorMatrix type="matrix" values="0 0 0 0 0 0 0 0 0 0 0 0 0 0 0 0 0 0 0.2 0"/>
<feBlend mode="normal" in2="BackgroundImageFix" result="effect1_dropShadow_328_1089"/>
<feBlend mode="normal" in="SourceGraphic" in2="effect1_dropShadow_328_1089" result="shape"/>
</filter>
</defs>
</svg>
