<svg width="24" height="24" viewBox="0 0 24 24" fill="none" xmlns="http://www.w3.org/2000/svg">
<g filter="url(#filter0_d_367_636)">
<path d="M19.5 9.58335C19.5028 10.6832 19.2459 11.7682 18.75 12.75C18.162 13.9265 17.2581 14.916 16.1395 15.6077C15.0209 16.2995 13.7319 16.6662 12.4167 16.6667C11.3168 16.6695 10.2318 16.4126 9.24999 15.9167L4.5 17.5L6.08333 12.75C5.58744 11.7682 5.33046 10.6832 5.33333 9.58335C5.33384 8.26815 5.70051 6.97906 6.39226 5.86048C7.08402 4.74189 8.07354 3.83799 9.24999 3.25002C10.2318 2.75413 11.3168 2.49716 12.4167 2.50002H12.8333C14.5703 2.59585 16.2109 3.32899 17.4409 4.55907C18.671 5.78915 19.4042 7.42973 19.5 9.16668V9.58335Z" fill="white"/>
</g>
<defs>
<filter id="filter0_d_367_636" x="0.5" y="0.5" width="23" height="23" filterUnits="userSpaceOnUse" color-interpolation-filters="sRGB">
<feFlood flood-opacity="0" result="BackgroundImageFix"/>
<feColorMatrix in="SourceAlpha" type="matrix" values="0 0 0 0 0 0 0 0 0 0 0 0 0 0 0 0 0 0 127 0" result="hardAlpha"/>
<feOffset dy="2"/>
<feGaussianBlur stdDeviation="2"/>
<feComposite in2="hardAlpha" operator="out"/>
<feColorMatrix type="matrix" values="0 0 0 0 0 0 0 0 0 0 0 0 0 0 0 0 0 0 0.2 0"/>
<feBlend mode="normal" in2="BackgroundImageFix" result="effect1_dropShadow_367_636"/>
<feBlend mode="normal" in="SourceGraphic" in2="effect1_dropShadow_367_636" result="shape"/>
</filter>
</defs>
</svg>
