<svg width="22" height="22" viewBox="0 0 22 22" fill="none" xmlns="http://www.w3.org/2000/svg">
<path d="M13.7501 16.5V17.1875C13.7501 17.9168 13.4604 18.6163 12.9446 19.132C12.4289 19.6478 11.7294 19.9375 11.0001 19.9375C10.2707 19.9375 9.57127 19.6478 9.05555 19.132C8.53982 18.6163 8.25009 17.9168 8.25009 17.1875V16.5M18.377 15.1005C17.2735 13.75 16.4945 13.0625 16.4945 9.33926C16.4945 5.92969 14.7534 4.71496 13.3204 4.125C13.1301 4.0468 12.9509 3.86719 12.8929 3.67168C12.6415 2.81617 11.9368 2.0625 11.0001 2.0625C10.0634 2.0625 9.35825 2.8166 9.10947 3.67254C9.05146 3.8702 8.87228 4.0468 8.68193 4.125C7.2472 4.71582 5.50782 5.92625 5.50782 9.33926C5.50568 13.0625 4.72665 13.75 3.62322 15.1005C3.16603 15.66 3.5665 16.5 4.36614 16.5H17.6383C18.4337 16.5 18.8316 15.6574 18.377 15.1005Z" stroke="#121A26" stroke-width="1.5" stroke-linecap="round" stroke-linejoin="round"/>
</svg>
