<svg width="20" height="20" viewBox="0 0 20 20" fill="none" xmlns="http://www.w3.org/2000/svg">
<path d="M12.0469 10.807C12.3096 10.4325 12.4644 9.99299 12.4946 9.53648C12.5247 9.07998 12.429 8.62395 12.2179 8.21807C12.0068 7.81219 11.6884 7.47202 11.2973 7.23461C10.9062 6.9972 10.4575 6.87166 10 6.87166C9.5425 6.87166 9.09377 6.9972 8.70269 7.23461C8.31161 7.47202 7.99318 7.81219 7.78207 8.21807C7.57096 8.62395 7.47528 9.07998 7.50544 9.53648C7.5356 9.99299 7.69045 10.4325 7.95313 10.807C7.68544 10.9334 7.45106 11.1207 7.26875 11.3539C7.0938 11.5771 6.97251 11.8376 6.91426 12.1152C6.85601 12.3927 6.86236 12.68 6.93281 12.9547L7.88438 16.7047C7.98877 17.1122 8.22622 17.4733 8.55908 17.7306C8.89195 17.9879 9.30117 18.1267 9.72188 18.125H10.2781C10.6985 18.1268 11.1075 17.9883 11.4403 17.7315C11.7732 17.4747 12.0108 17.1142 12.1156 16.707L13.0672 12.957C13.1376 12.6823 13.144 12.3951 13.0857 12.1175C13.0275 11.8399 12.9062 11.5795 12.7313 11.3563C12.5492 11.1222 12.3148 10.9341 12.0469 10.807ZM10 8.12501C10.2472 8.12501 10.4889 8.19832 10.6945 8.33567C10.9 8.47302 11.0602 8.66825 11.1549 8.89665C11.2495 9.12506 11.2742 9.37639 11.226 9.61887C11.1778 9.86135 11.0587 10.0841 10.8839 10.2589C10.7091 10.4337 10.4863 10.5528 10.2439 10.601C10.0014 10.6492 9.75006 10.6245 9.52165 10.5299C9.29324 10.4352 9.09802 10.275 8.96066 10.0695C8.82331 9.86391 8.75 9.62223 8.75 9.37501C8.75 9.04349 8.8817 8.72555 9.11612 8.49112C9.35054 8.2567 9.66848 8.12501 10 8.12501ZM11.8555 12.6492L10.9039 16.3992C10.8676 16.5368 10.7863 16.6583 10.6731 16.7445C10.5599 16.8307 10.4212 16.8766 10.2789 16.875H9.72266C9.58038 16.8766 9.44164 16.8307 9.32843 16.7445C9.21522 16.6583 9.134 16.5368 9.09766 16.3992L8.1461 12.6492C8.12263 12.559 8.12043 12.4645 8.13968 12.3733C8.15893 12.282 8.19911 12.1965 8.25703 12.1234C8.31792 12.0454 8.39595 11.9824 8.48509 11.9393C8.57423 11.8962 8.67209 11.8742 8.7711 11.875H11.232C11.331 11.8742 11.4289 11.8962 11.518 11.9393C11.6072 11.9824 11.6852 12.0454 11.7461 12.1234C11.8038 12.1967 11.8436 12.2822 11.8626 12.3735C11.8816 12.4647 11.8792 12.5591 11.8555 12.6492ZM5.625 10C5.62412 10.3959 5.67668 10.7901 5.78125 11.1719C5.82153 11.3302 5.79824 11.498 5.71636 11.6393C5.63449 11.7806 5.50053 11.8843 5.34317 11.9281C5.18582 11.9719 5.01756 11.9524 4.87443 11.8737C4.73129 11.795 4.62466 11.6634 4.57735 11.507C4.34509 10.6715 4.30919 9.79355 4.47243 8.94182C4.63567 8.09009 4.99363 7.28764 5.51836 6.59716C6.04309 5.90669 6.72036 5.34689 7.49726 4.96152C8.27416 4.57614 9.12965 4.37562 9.99688 4.37562C10.8641 4.37562 11.7196 4.57614 12.4965 4.96152C13.2734 5.34689 13.9507 5.90669 14.4754 6.59716C15.0001 7.28764 15.3581 8.09009 15.5213 8.94182C15.6846 9.79355 15.6487 10.6715 15.4164 11.507C15.3599 11.6512 15.2518 11.7693 15.1132 11.8384C14.9746 11.9074 14.8152 11.9226 14.6661 11.8808C14.5169 11.8391 14.3886 11.7435 14.3059 11.6125C14.2233 11.4815 14.1922 11.3245 14.2188 11.1719C14.3838 10.5708 14.4186 9.94135 14.3206 9.32574C14.2227 8.71012 13.9943 8.12255 13.6508 7.60237C13.3073 7.08219 12.8566 6.64142 12.3289 6.30959C11.8013 5.97775 11.2087 5.76252 10.5911 5.67829C9.97346 5.59407 9.34495 5.6428 8.74768 5.82123C8.15041 5.99966 7.59816 6.30367 7.12793 6.71288C6.6577 7.1221 6.28034 7.62707 6.02114 8.19399C5.76194 8.7609 5.62688 9.37665 5.625 10ZM18.125 10C18.1257 11.3358 17.7969 12.6512 17.1675 13.8294C16.5382 15.0077 15.6278 16.0125 14.5172 16.7547C14.3794 16.8469 14.2106 16.8806 14.048 16.8484C13.8854 16.8161 13.7422 16.7206 13.65 16.5828C13.5578 16.445 13.5241 16.2763 13.5563 16.1136C13.5886 15.951 13.6841 15.8078 13.8219 15.7156C15.0477 14.8958 15.9774 13.7036 16.4738 12.315C16.9702 10.9263 17.0069 9.41489 16.5786 8.00379C16.1502 6.59269 15.2794 5.35672 14.0949 4.47837C12.9103 3.60002 11.4747 3.12584 10 3.12584C8.52531 3.12584 7.0897 3.60002 5.90513 4.47837C4.72056 5.35672 3.84981 6.59269 3.42144 8.00379C2.99308 9.41489 3.02979 10.9263 3.52618 12.315C4.02256 13.7036 4.9523 14.8958 6.17813 15.7156C6.31592 15.8078 6.41143 15.951 6.44366 16.1136C6.4759 16.2763 6.44221 16.445 6.35 16.5828C6.2578 16.7206 6.11463 16.8161 5.952 16.8484C5.78938 16.8806 5.6206 16.8469 5.48281 16.7547C4.31622 15.9744 3.37164 14.9052 2.74111 13.6514C2.11058 12.3975 1.8156 11.0016 1.88492 9.59987C1.95423 8.19809 2.38547 6.83817 3.13662 5.65261C3.88777 4.46705 4.93322 3.49628 6.17109 2.83488C7.40897 2.17349 8.79707 1.84402 10.2001 1.87859C11.6032 1.91316 12.9734 2.31059 14.1772 3.03214C15.381 3.7537 16.3774 4.77478 17.0692 5.99589C17.7611 7.21701 18.1248 8.59652 18.125 10Z" fill="#4B164C" fill-opacity="0.5"/>
</svg>
