<svg width="21" height="21" viewBox="0 0 21 21" fill="none" xmlns="http://www.w3.org/2000/svg">
<path d="M13.7168 6.53754C13.7168 7.38378 13.3807 8.19536 12.7823 8.79374C12.1839 9.39212 11.3723 9.72829 10.5261 9.72829C9.67984 9.72829 8.86826 9.39212 8.26987 8.79374C7.67149 8.19536 7.33532 7.38378 7.33532 6.53754C7.33532 5.6913 7.67149 4.87972 8.26987 4.28134C8.86826 3.68295 9.67984 3.34679 10.5261 3.34679C11.3723 3.34679 12.1839 3.68295 12.7823 4.28134C13.3807 4.87972 13.7168 5.6913 13.7168 6.53754V6.53754ZM10.5261 12.1214C9.04516 12.1214 7.62489 12.7096 6.57772 13.7568C5.53055 14.804 4.94226 16.2242 4.94226 17.7052H16.1099C16.1099 16.2242 15.5216 14.804 14.4744 13.7568C13.4273 12.7096 12.007 12.1214 10.5261 12.1214V12.1214Z" stroke="#4B164C" stroke-width="1.59538" stroke-linecap="round" stroke-linejoin="round"/>
</svg>
