<svg width="26" height="26" viewBox="0 0 26 26" fill="none" xmlns="http://www.w3.org/2000/svg">
<path fill-rule="evenodd" clip-rule="evenodd" d="M22.0482 11.3975L20.1887 16.976C18.8777 20.9092 18.2221 22.8758 17.2609 23.4346C16.3464 23.9662 15.2169 23.9662 14.3024 23.4346C13.3411 22.8758 12.6856 20.9092 11.3745 16.976C11.164 16.3445 11.0588 16.0287 10.8821 15.7647C10.7109 15.509 10.4911 15.2892 10.2353 15.118C9.97141 14.9413 9.65564 14.836 9.0241 14.6255C5.09092 13.3145 3.12433 12.6589 2.56548 11.6976C2.03384 10.7832 2.03384 9.65372 2.56548 8.73923C3.12433 7.77794 5.09092 7.12241 9.0241 5.81135L14.6026 3.95186C19.4758 2.32745 21.9124 1.51524 23.1986 2.80145C24.4848 4.08765 23.6726 6.52428 22.0482 11.3975ZM14.1329 11.8107C13.8174 11.4916 13.8202 10.9772 14.1393 10.6617L18.7007 6.15053C19.0197 5.835 19.5342 5.83785 19.8497 6.1569C20.1652 6.47596 20.1624 6.9904 19.8433 7.30593L15.2819 11.8171C14.9629 12.1326 14.4484 12.1297 14.1329 11.8107Z" fill="white"/>
</svg>
