<svg width="26" height="24" viewBox="0 0 26 24" fill="none" xmlns="http://www.w3.org/2000/svg">
<g filter="url(#filter0_d_298_2024)">
<path d="M21.5672 10.1922L15.3172 16.4422C15.2298 16.5297 15.1184 16.5893 14.9971 16.6135C14.8758 16.6376 14.75 16.6252 14.6358 16.5779C14.5215 16.5305 14.4239 16.4504 14.3552 16.3475C14.2865 16.2446 14.2499 16.1237 14.25 16V12.893C9.78907 13.1461 6.73048 16.0391 5.87189 16.9555C5.73707 17.0995 5.56027 17.1972 5.36666 17.2349C5.17304 17.2726 4.97247 17.2483 4.7935 17.1653C4.61452 17.0824 4.46625 16.9452 4.3698 16.7731C4.27334 16.6011 4.23361 16.403 4.25626 16.207C4.54611 13.6867 5.92658 11.2625 8.14376 9.38125C9.98517 7.81875 12.2234 6.82735 14.25 6.65391V3.5C14.2499 3.37632 14.2865 3.25539 14.3552 3.15252C14.4239 3.04964 14.5215 2.96946 14.6358 2.92211C14.75 2.87477 14.8758 2.86239 14.9971 2.88655C15.1184 2.9107 15.2298 2.97031 15.3172 3.05782L21.5672 9.30782C21.6253 9.36586 21.6714 9.43479 21.7029 9.51067C21.7343 9.58654 21.7505 9.66787 21.7505 9.75C21.7505 9.83214 21.7343 9.91347 21.7029 9.98934C21.6714 10.0652 21.6253 10.1341 21.5672 10.1922Z" fill="white"/>
</g>
<defs>
<filter id="filter0_d_298_2024" x="0.250061" y="0.874512" width="25.5004" height="22.3777" filterUnits="userSpaceOnUse" color-interpolation-filters="sRGB">
<feFlood flood-opacity="0" result="BackgroundImageFix"/>
<feColorMatrix in="SourceAlpha" type="matrix" values="0 0 0 0 0 0 0 0 0 0 0 0 0 0 0 0 0 0 127 0" result="hardAlpha"/>
<feOffset dy="2"/>
<feGaussianBlur stdDeviation="2"/>
<feComposite in2="hardAlpha" operator="out"/>
<feColorMatrix type="matrix" values="0 0 0 0 0 0 0 0 0 0 0 0 0 0 0 0 0 0 0.2 0"/>
<feBlend mode="normal" in2="BackgroundImageFix" result="effect1_dropShadow_298_2024"/>
<feBlend mode="normal" in="SourceGraphic" in2="effect1_dropShadow_298_2024" result="shape"/>
</filter>
</defs>
</svg>
