<svg width="24" height="24" viewBox="0 0 24 24" fill="none" xmlns="http://www.w3.org/2000/svg">
<path d="M20.9999 12C20.9999 12.1989 20.9209 12.3897 20.7803 12.5303C20.6396 12.671 20.4488 12.75 20.2499 12.75H11.9999C11.801 12.75 11.6103 12.671 11.4696 12.5303C11.3289 12.3897 11.2499 12.1989 11.2499 12C11.2499 11.8011 11.3289 11.6103 11.4696 11.4697C11.6103 11.329 11.801 11.25 11.9999 11.25H20.2499C20.4488 11.25 20.6396 11.329 20.7803 11.4697C20.9209 11.6103 20.9999 11.8011 20.9999 12ZM11.9999 6.74999H20.2499C20.4488 6.74999 20.6396 6.67097 20.7803 6.53032C20.9209 6.38967 20.9999 6.1989 20.9999 5.99999C20.9999 5.80108 20.9209 5.61031 20.7803 5.46966C20.6396 5.32901 20.4488 5.24999 20.2499 5.24999H11.9999C11.801 5.24999 11.6103 5.32901 11.4696 5.46966C11.3289 5.61031 11.2499 5.80108 11.2499 5.99999C11.2499 6.1989 11.3289 6.38967 11.4696 6.53032C11.6103 6.67097 11.801 6.74999 11.9999 6.74999ZM20.2499 17.25H11.9999C11.801 17.25 11.6103 17.329 11.4696 17.4697C11.3289 17.6103 11.2499 17.8011 11.2499 18C11.2499 18.1989 11.3289 18.3897 11.4696 18.5303C11.6103 18.671 11.801 18.75 11.9999 18.75H20.2499C20.4488 18.75 20.6396 18.671 20.7803 18.5303C20.9209 18.3897 20.9999 18.1989 20.9999 18C20.9999 17.8011 20.9209 17.6103 20.7803 17.4697C20.6396 17.329 20.4488 17.25 20.2499 17.25ZM7.7193 3.96936L5.24993 6.43968L4.28055 5.46936C4.13982 5.32863 3.94895 5.24957 3.74993 5.24957C3.55091 5.24957 3.36003 5.32863 3.2193 5.46936C3.07857 5.6101 2.99951 5.80097 2.99951 5.99999C2.99951 6.19901 3.07857 6.38988 3.2193 6.53062L4.7193 8.03061C4.78896 8.10035 4.87167 8.15567 4.96272 8.19341C5.05377 8.23115 5.15137 8.25058 5.24993 8.25058C5.34849 8.25058 5.44609 8.23115 5.53713 8.19341C5.62818 8.15567 5.7109 8.10035 5.78055 8.03061L8.78055 5.03061C8.92128 4.88988 9.00035 4.69901 9.00035 4.49999C9.00035 4.30097 8.92128 4.1101 8.78055 3.96936C8.63982 3.82863 8.44895 3.74957 8.24993 3.74957C8.05091 3.74957 7.86003 3.82863 7.7193 3.96936ZM7.7193 9.96936L5.24993 12.4397L4.28055 11.4694C4.13982 11.3286 3.94895 11.2496 3.74993 11.2496C3.55091 11.2496 3.36003 11.3286 3.2193 11.4694C3.07857 11.6101 2.99951 11.801 2.99951 12C2.99951 12.0985 3.01892 12.1961 3.05663 12.2872C3.09435 12.3782 3.14962 12.4609 3.2193 12.5306L4.7193 14.0306C4.78896 14.1003 4.87167 14.1557 4.96272 14.1934C5.05377 14.2312 5.15137 14.2506 5.24993 14.2506C5.34849 14.2506 5.44609 14.2312 5.53713 14.1934C5.62818 14.1557 5.7109 14.1003 5.78055 14.0306L8.78055 11.0306C8.92128 10.8899 9.00035 10.699 9.00035 10.5C9.00035 10.301 8.92128 10.1101 8.78055 9.96936C8.63982 9.82863 8.44895 9.74957 8.24993 9.74957C8.05091 9.74957 7.86003 9.82863 7.7193 9.96936ZM7.7193 15.9694L5.24993 18.4397L4.28055 17.4694C4.21087 17.3997 4.12815 17.3444 4.0371 17.3067C3.94606 17.269 3.84847 17.2496 3.74993 17.2496C3.65138 17.2496 3.5538 17.269 3.46276 17.3067C3.37171 17.3444 3.28899 17.3997 3.2193 17.4694C3.14962 17.539 3.09435 17.6218 3.05663 17.7128C3.01892 17.8039 2.99951 17.9014 2.99951 18C2.99951 18.0985 3.01892 18.1961 3.05663 18.2872C3.09435 18.3782 3.14962 18.4609 3.2193 18.5306L4.7193 20.0306C4.78896 20.1003 4.87167 20.1557 4.96272 20.1934C5.05377 20.2312 5.15137 20.2506 5.24993 20.2506C5.34849 20.2506 5.44609 20.2312 5.53713 20.1934C5.62818 20.1557 5.7109 20.1003 5.78055 20.0306L8.78055 17.0306C8.92128 16.8899 9.00035 16.699 9.00035 16.5C9.00035 16.301 8.92128 16.1101 8.78055 15.9694C8.63982 15.8286 8.44895 15.7496 8.24993 15.7496C8.05091 15.7496 7.86003 15.8286 7.7193 15.9694Z" fill="black"/>
</svg>
